# Blender v2.79 (sub 0) OBJ File: ''
# www.blender.org
mtllib cube.mtl
o Cube
v 1.056280 -1.000000 -1.000000
v 1.056280 -1.000000 1.000000
v -0.943720 -1.000000 1.000000
v -0.943720 -1.000000 -1.000000
v 1.056280 1.000000 -0.999999
v 1.056279 1.000000 1.000001
v -0.943721 1.000000 1.000000
v -0.943720 1.000000 -1.000000
vt 0.5000 0.0000 0.0000
vt 0.0000 1.0000 0.0000
vt 1.0000 1.0000 0.0000
vn 0.0000 -1.0000 0.0000
vn 0.0000 1.0000 0.0000
vn 1.0000 -0.0000 0.0000
vn 0.0000 -0.0000 1.0000
vn -1.0000 -0.0000 -0.0000
vn 0.0000 0.0000 -1.0000
usemtl Material
s off
f 2/1/1 4/2/1 1/3/1
f 8/1/2 6/2/2 5/3/2
f 5/1/3 2/2/3 1/3/3
f 6/1/4 3/2/4 2/3/4
f 7/1/5 4/2/5 3/3/5
f 1/1/6 8/2/6 5/3/6
f 2/1/1 3/2/1 4/3/1
f 8/1/2 7/2/2 6/3/2
f 5/1/3 6/2/3 2/3/3
f 6/1/4 7/2/4 3/3/4
f 7/1/5 8/2/5 4/3/5
f 1/1/6 4/2/6 8/3/6
